<?xml version="1.0" encoding="UTF-8"?>
<svg width="106px" height="35px" viewBox="0 0 106 35" version="1.1" xmlns="http://www.w3.org/2000/svg" xmlns:xlink="http://www.w3.org/1999/xlink">
    <!-- Generator: Sketch 55.1 (78136) - https://sketchapp.com -->
    <title>编组</title>
    <desc>Created with Sketch.</desc>
    <g id="页面1" stroke="none" stroke-width="1" fill="none" fill-rule="evenodd">
        <g id="桌面端HD备份-17" transform="translate(-28.000000, -937.000000)">
            <g id="编组" transform="translate(28.000000, 937.000000)">
                <polygon id="Fill-1" fill="#FFFFFF" points="30.4992666 20.4756578 30.4992666 9.26712646 30.4992666 8.1232178 30.4992666 7 26 7 26 9.26712646 28.2491443 9.26712646 28.2491443 20.1593833 26.0312924 22.3949809 27.6213397 23.9980294 29.2172543 22.3910398 30.8131689 23.9980294 30.8131689 24 44 24 44 21.7328735 31.7480306 21.7328735"></polygon>
                <polygon id="Fill-2" fill="#FFFFFF" points="25 6 30 6 30 4 25 4"></polygon>
                <polygon id="Fill-3" fill="#FFFFFF" points="55 10 52.7519548 11.3223329 46 15.2923186 46 17.9389758 49.375 15.9544808 49.375 19.8109531 46.8523023 22.3799431 48.44255 24 50.6886403 21.7108108 51.6220678 20.7598862 51.6220678 14.6321479 55 12.6456615 58.3798871 14.6321479 58.3798871 23.9770982 60.6279322 23.9770982 60.6279322 15.9544808 64 17.9389758 64 15.2923186 57.2490226 11.3223329"></polygon>
                <polygon id="Fill-4" fill="#FFFFFF" points="82.7155622 5 79.2844378 5 77 5 77 7.25097784 77 14 79.2844378 14 79.2844378 7.25097784 82.7155622 7.25097784 82.7155622 10.6205997 80.3536858 10.6205997 80.3536858 12.8705997 82.7155622 12.8705997 82.7155622 14 85 14 85 5 84.995036 5"></polygon>
                <polygon id="Fill-5" fill="#FFFFFF" points="67.00293 16 72.6217037 10.0916561 76 10.0916561 76 7.72914033 72.6197504 7.72914033 72.6197504 6.54685525 75.9931633 6.54685525 75.9931633 4.18433944 70.0110689 4.18433944 70.3753663 3 68.1260988 3 67.7315247 4.18433944 67 6.54685525 69.2228974 6.54685525 70.3724362 6.54685525 70.3724362 7.72914033 67.00586 7.72914033 67.00586 10.0916561 69.4436245 10.0916561 67.00293 12.6585809"></polygon>
                <polygon id="Fill-6" fill="#FFFFFF" points="73 14 76 14 76 12 73 12"></polygon>
                <polygon id="Fill-7" fill="#FFFFFF" points="94.9970194 6.60605007 95 6.60605007 94.9970194 6.60083449 94.9970194 6.59979138 93.8614009 4.20062587 91.5762543 4.20062587 92.7108793 6.59979138 89.2861401 6.59979138 90.4277198 3 88.1425733 3 87 6.59979138 87 9 94.9970194 9"></polygon>
                <polygon id="Fill-8" fill="#FFFFFF" points="97 14 97 23.9932432 98.1202305 23.9932432 98.1202305 24 106 24 106 21.7789575 99.251223 21.7789575 99.251223 18.4469112 104.882705 18.4469112 104.882705 16.226834 99.251223 16.226834 99.251223 14"></polygon>
                <polygon id="Fill-9" fill="#FFFFFF" points="69 15 69 24 71.3326575 24 71.3326575 22.8745111 72.5015206 22.8745111 72.5015206 22.8715776 74.8331644 20.6215776 74.8331644 20.6196219 74.8341781 20.6284224 79.4994931 20.6284224 79.4994931 18.3794003 74.8341781 18.3794003 74.8331644 18.3882008 74.8331644 18.3725554 72.4984794 20.6235332 71.3326575 20.6235332 71.3326575 17.25 80.6673425 17.25 80.6673425 23.9990222 83 23.9990222 83 15 69.0010138 15"></polygon>
                <polygon id="Fill-10" fill="#FFFFFF" points="87 10.0233283 87 12.3328262 87 24 89.2855724 24 89.2855724 12.3328262 92.7134343 12.3328262 92.7134343 14.6615953 90.4268686 14.6615953 90.4268686 16.9934072 92.7134343 16.9934072 92.7134343 19.3343476 90.4268686 19.3343476 90.4268686 21.6681881 92.7134343 21.6681881 92.7134343 24 95 24 95 21.6681881 95 19.3343476 95 16.9934072 95 14.6615953 95 12.3328262 95 10.0233283 95 10 87 10"></polygon>
                <polygon id="Fill-11" fill="#FFFFFF" points="100 8 105 8 105 6 100 6"></polygon>
                <polygon id="Fill-12" fill="#FFFFFF" points="97 4 97 13 98.1187602 13 99.2522023 13 106 13 106 10.750489 99.2522023 10.750489 99.2522023 4"></polygon>
                <polygon id="Fill-13" fill="#FFFFFF" points="43.9979458 9.61266433 43.9979458 7.36701303 41.6345896 7.36701303 36.9078771 7.36701303 36.9078771 4 34.5445208 4 34.5445208 7.36701303 31 7.36701303 31 9.61266433 34.5445208 9.61266433 34.5445208 16.8815087 31.8822786 19.4121362 33.5533697 21 36.9078771 17.8115851 36.9047958 17.8086572 36.9078771 17.8086572 36.9078771 9.61266433 41.6345896 9.61266433 41.6345896 18.5952695 39.2722604 18.5952695 39.2722604 20.8399449 44 20.8399449 44 18.5952695 43.9979458 18.5952695"></polygon>
                <path d="M56.1298871,7.36839817 L61.7509774,7.36839817 L61.7509774,6.25048902 L56.1298871,6.25048902 L56.1298871,7.36839817 Z M61.7509774,4 L56.1298871,4 L53.8808645,4 L48.2490226,4 L46.0273675,4 L46,4 L46,12.9970659 L46.0361642,12.9970659 L46.0361642,13 L49.6125109,13 L53.5065161,10.7485329 L48.2490226,10.7485329 L48.2490226,9.61790915 L48.2490226,7.36839817 L48.2490226,6.25048902 L53.8808645,6.25048902 L53.8808645,7.36839817 L49.3769548,7.36839817 L49.3769548,9.61790915 L53.8808645,9.61790915 L53.8808645,10.5323843 L54.9990226,9.88589437 L56.1298871,10.5392306 L56.1298871,9.61790915 L61.7509774,9.61790915 L61.7509774,10.7485329 L56.4925065,10.7485329 L60.3884666,13 L62.0647263,13 L62.0647263,12.9970659 L64,12.9970659 L64,4 L62.4077976,4 L61.7509774,4 Z" id="Fill-14" fill="#FFFFFF"></path>
                <polygon id="Fill-15" fill="#FFFFFF" points="0 0 0 15 3.44373504 13.2225724 3.44373504 3.47136534 15.2643655 3.47136534 16.9283719 6.26575912 20 4.68247049 17.2126895 0"></polygon>
                <polygon id="Fill-16" fill="#FFFFFF" points="0 35 17.211831 35 20 30.3178435 16.9275276 28.7326494 15.2636042 31.5288674 3.44356327 31.5288674 3.44356327 21.7763026 0 20"></polygon>
                <polygon id="Fill-17" fill="#29A0FA" points="1 17.5005071 15.3157895 25.0163713 15.3157895 21.0834983 8.48801581 17.5005071 17.5871016 12.7218332 17.5871016 20.4526972 17.5871016 22.2771527 17.5871016 26.2090114 21 28 21 7"></polygon>
                <polygon id="Fill-18" fill="#29A0FA" points="37.213 26 37.213 30.7336377 37.458 31 37.787 31 37.787 26.2674494 37.542 26"></polygon>
                <polygon id="Fill-19" fill="#29A0FA" points="103.213 26 103.213 30.7336377 103.456 31 103.787 31 103.787 26.2674494 103.542 26"></polygon>
                <polygon id="Fill-20" fill="#29A0FA" points="70.2115 26 70.2115 30.7336377 70.4575 31 70.7885 31 70.7885 26.2674494 70.5415 26"></polygon>
                <path d="M29.3458476,27.9210698 L29.0671217,28.1863449 L27.6552901,28.1863449 L27.6552901,26.6251359 L29.0671217,26.6251359 L29.3458476,26.890411 L29.3458476,27.9210698 Z M29.3458476,30.1085018 L29.0671217,30.3748641 L27.6552901,30.3748641 L27.6552901,28.8114808 L29.0671217,28.8114808 L29.3458476,29.077843 L29.3458476,30.1085018 Z M27.6552901,26 L27.5290102,26 L27,26 L27,26.6251359 L27,31 L27.0113766,31 L27.5290102,31 L27.6552901,31 L29.3390216,31 L30,30.3672538 L30,29.4822788 L30,28.6527506 L29.8043231,28.4657534 L30,28.2776691 L30,27.5155469 L30,26.6316591 L29.3390216,26 L27.6552901,26 Z" id="Fill-21" fill="#29A0FA"></path>
                <polygon id="Fill-22" fill="#29A0FA" points="54.3729553 29.6287516 52.7099237 26.2653328 52.4438386 26 52 26 52 31 52.6259542 31 52.6259542 27.4984776 54.302072 30.7738147 54.5299891 31 55 31 55 26 54.3729553 26"></polygon>
                <polygon id="Fill-23" fill="#29A0FA" points="45.5687966 26 45.128969 26 45.127793 26 45.128969 26.0021744 44 31 44.6750294 31 45.4664837 27.3742118 46.3226186 31 47 31 45.8475108 26.2576647"></polygon>
                <polygon id="Fill-24" fill="#29A0FA" points="95.5693574 26 95.1297022 26 95.1285266 26 95.1297022 26.0021744 94 31 94.6747649 31 95.4670846 27.3742118 96.322884 31 97 31 95.8479624 26.2576647"></polygon>
                <polygon id="Fill-25" fill="#29A0FA" points="62.5246377 30.2159635 62.4037267 30.3747281 61.6169772 30.3747281 61.4770186 30.1909526 61.4770186 28.8914746 61 29.2035668 61 30.4497608 61.4198758 31 62.6008282 31 63 30.4747716 63 26 62.5246377 26"></polygon>
                <polygon id="Fill-26" fill="#29A0FA" points="79.6099773 26.6240487 80 26 77.6530612 26 77 26 77 26.6240487 77 28.2222222 77 28.8462709 77 30.3748641 77 31 77.6530612 31 79.478458 31 79.8696145 30.3748641 77.6530612 30.3748641 77.6530612 28.8462709 79.446712 28.8462709 79.8367347 28.2222222 77.6530612 28.2222222 77.6530612 26.6240487"></polygon>
                <polygon id="Fill-27" fill="#29A0FA" points="86.2125 30.7875 86.7875 30.7875 86.7875 30.2125 86.2125 30.2125"></polygon>
            </g>
        </g>
    </g>
</svg>